<!--?xml version="1.0" encoding="UTF-8"?-->
<svg xmlns="http://www.w3.org/2000/svg" width="260" height="260" viewBox="0 0 260 260">

  <!-- moldura -->
  <rect x="4" y="4" width="252" height="252" rx="20" fill="#ffffff" stroke="#222831" stroke-width="3"></rect>

  <!-- quadrantes de fundo -->
  <circle cx="75" cy="75" r="46" fill="#ffe0b2"></circle>
  <circle cx="185" cy="75" r="46" fill="#e1f5fe"></circle>
  <circle cx="75" cy="185" r="46" fill="#e8f5e9"></circle>
  <circle cx="185" cy="185" r="46" fill="#fff3e0"></circle>

  <!-- FIGURA 1 – perna elevada (superior esquerda) -->
  <circle cx="75" cy="55" r="8" fill="#ec407a"></circle>
  <path d="M75 63 L68 85 L82 85 Z" fill="#ec407a"></path>
  <path d="M68 70 L55 82" stroke="#26c6da" stroke-width="4" stroke-linecap="round"></path>
  <path d="M72 85 L70 105" stroke="#ffb300" stroke-width="4" stroke-linecap="round"></path>
  <path d="M78 85 L94 98" stroke="#ffb300" stroke-width="4" stroke-linecap="round"></path>

  <!-- FIGURA 2 – alongamento lateral (superior direita) -->
  <circle cx="185" cy="55" r="8" fill="#ab47bc"></circle>
  <path d="M185 63 L178 82 L192 82 Z" fill="#ab47bc"></path>
  <path d="M185 63 L200 48" stroke="#29b6f6" stroke-width="4" stroke-linecap="round"></path>
  <path d="M178 70 L162 78" stroke="#29b6f6" stroke-width="4" stroke-linecap="round"></path>
  <path d="M182 82 L178 100" stroke="#ffca28" stroke-width="4" stroke-linecap="round"></path>
  <path d="M188 82 L194 100" stroke="#ffca28" stroke-width="4" stroke-linecap="round"></path>

  <!-- FIGURA 3 – corda / pulo (inferior esquerda) -->
  <circle cx="75" cy="165" r="8" fill="#ef5350"></circle>
  <path d="M75 173 L70 190 L80 190 Z" fill="#ef5350"></path>
  <path d="M70 178 L58 188" stroke="#26a69a" stroke-width="4" stroke-linecap="round"></path>
  <path d="M80 178 L92 188" stroke="#26a69a" stroke-width="4" stroke-linecap="round"></path>
  <path d="M58 188 Q75 205 92 188" fill="none" stroke="#ffb300" stroke-width="3" stroke-linecap="round"></path>
  <path d="M72 190 L70 205" stroke="#ffa726" stroke-width="4" stroke-linecap="round"></path>
  <path d="M78 190 L80 205" stroke="#ffa726" stroke-width="4" stroke-linecap="round"></path>

  <!-- FIGURA 4 – salto (inferior direita) -->
  <circle cx="185" cy="165" r="8" fill="#42a5f5"></circle>
  <path d="M185 173 L178 192 L192 192 Z" fill="#42a5f5"></path>
  <path d="M185 173 L174 155" stroke="#26c6da" stroke-width="4" stroke-linecap="round"></path>
  <path d="M185 173 L196 155" stroke="#26c6da" stroke-width="4" stroke-linecap="round"></path>
  <path d="M182 192 L175 210" stroke="#ffb300" stroke-width="4" stroke-linecap="round"></path>
  <path d="M188 192 L195 210" stroke="#ffb300" stroke-width="4" stroke-linecap="round"></path>

</svg>
